PathFileType	4	(x/y/z)	TRC_MarkerData\Passive\Passive_Pref0004.trc
DataRate	CameraRate	NumFrames	NumMarkers	Units	OrigDataRate	OrigDataStartFrame	OrigNumFrames
240	240	8	49	mm	240	98	259
Frame#	Time	R_AC			L_AC			HEAD			STERN			L_IC			R_IC			L_ASIS			R_ASIS			L_GT			R_GT			L_PSIS			R_PSIS			SACRAL			L_LAT_KNEE			L_MED_KNEE			R_LAT_KNEE			R_MED_KNEE			L_LAT_ANK			L_MED_ANK			R_LAT_ANK			R_MED_ANK			L_THIGH_PROX_POST			L_THIGH_PROX_ANT			L_THIGH_DIST_ANT			L_THIGH_DIST_POST			R_THIGH_PROX_POST			R_THIGH_PROX_ANT			R_THIGH_DIST_ANT			R_THIGH_DIST_POST			L_SHANK_PROX_POST			L_SHANK_PROX_ANT			L_SHANK_DIST_ANT			L_SHANK_DIST_POST			R_SHANK_PROX_POST			R_SHANK_PROX_ANT			R_SHANK_DIST_ANT			R_SHANK_DIST_POST			L_HEEL_LAT			L_HEEL_SUP			L_HEEL_MED			R_HEEL_LAT			R_HEEL_SUP			R_HEEL_MED			L_1ST_MET			L_5TH_MET			L_TOE			R_1ST_MET			R_5TH_MET			R_TOE			
		X1	Y1	Z1	X2	Y2	Z2	X3	Y3	Z3	X4	Y4	Z4	X5	Y5	Z5	X6	Y6	Z6	X7	Y7	Z7	X8	Y8	Z8	X9	Y9	Z9	X10	Y10	Z10	X11	Y11	Z11	X12	Y12	Z12	X13	Y13	Z13	X14	Y14	Z14	X15	Y15	Z15	X16	Y16	Z16	X17	Y17	Z17	X18	Y18	Z18	X19	Y19	Z19	X20	Y20	Z20	X21	Y21	Z21	X22	Y22	Z22	X23	Y23	Z23	X24	Y24	Z24	X25	Y25	Z25	X26	Y26	Z26	X27	Y27	Z27	X28	Y28	Z28	X29	Y29	Z29	X30	Y30	Z30	X31	Y31	Z31	X32	Y32	Z32	X33	Y33	Z33	X34	Y34	Z34	X35	Y35	Z35	X36	Y36	Z36	X37	Y37	Z37	X38	Y38	Z38	X39	Y39	Z39	X40	Y40	Z40	X41	Y41	Z41	X42	Y42	Z42	X43	Y43	Z43	X44	Y44	Z44	X45	Y45	Z45	X46	Y46	Z46	X47	Y47	Z47	X48	Y48	Z48	X49	Y49	Z49	

98	0.40573	-245.88	1518.3	419.07	-202.33	1534.9	70.624	-243.75	1811.9	247.09	-184.53	1470.4	247.25	-260.82	1093.6	90.835	-259.33	1127.1	416.21	-199.37	1015.5	120.79	-180.25	1038.8	393.53	-288.72	928.49	72.354	-244.96	967.18	457.17	-378.26	1080.8	209.2	-374.13	1092.4	300.29	-389.94	1054.6	257.69	-296.78	526.84	132.79	-328.94	531.1	265.75	-107.55	571.04	409.77	-105.2	581.53	278.73	-433.16	129.66	157.36	-432.58	129.72	227.88	-145.24	143.36	397.64	-124.25	163.39	309.94	-306.09	759.45	103.07	-241.69	755.43	117.58	-242.73	682.55	133.37	-307.53	685.87	118.27	-209.75	747.31	429.22	-148.37	777.12	438.41	-120.54	708.16	428.35	-180.32	678.71	417.2	-334.93	449.14	135.73	-290.79	448.51	162.36	-316.76	395.28	167.72	-374.43	400.2	157.32	-177.92	412.01	406.91	-110.88	411.38	419.63	-115.82	335.97	412.18	-183.93	339.05	396.76	-530.32	76.737	163.26	-533.74	105.32	195.63	-528.58	75.247	229.93	-202.65	65.667	364.09	-204.14	92.759	329.79	-182.23	69.018	300.29	-323.3	53.782	242.09	-356.91	39.561	136.4	-263.69	51.238	208.46	16.174	103.97	339.85	-30.175	85.055	437.86	57.293	114.64	398.32
99	0.40992	-239.77	1517.7	418.94	-196.23	1534.4	70.578	-237.76	1811.4	247.26	-178.6	1469.8	247	-255.68	1093.1	90.921	-252.76	1126.7	416.25	-194.21	1014.8	120.71	-173.67	1038.4	393.31	-284.11	928.02	72.64	-238.33	966.82	457.27	-372.76	1080.5	209.83	-367.91	1092.1	300.88	-384.02	1054.3	258.37	-294.4	526.56	133.25	-326.46	530.85	266.26	-102.1	570.29	409.52	-100.8	580.5	278.4	-432.68	130.04	157.52	-432.06	130.04	228.06	-127.13	141.21	397.06	-107.07	161.98	309.31	-302.23	759.24	103.49	-237.9	754.82	117.82	-239.35	681.96	133.69	-304.17	685.66	118.72	-204.1	746.84	429.26	-142.47	776.38	438.11	-115.05	707.34	427.95	-174.99	678.12	417.12	-332.91	449.05	136.15	-288.77	448.19	162.76	-315.01	395.07	168.1	-372.63	400.29	157.73	-168.11	408.98	406.85	-101.02	410.38	419.28	-103.69	334.87	411.76	-171.92	335.88	396.57	-530.22	77.546	163.36	-533.28	106.05	195.85	-528.31	75.92	230.05	-182.05	61.674	363.52	-184.61	88.689	329.21	-161.99	65.691	299.7	-323.22	53.754	242.13	-356.84	39.609	136.42	-263.57	51.109	208.48	35.277	107.12	338.85	-10.144	86.793	436.96	76.206	119.17	397.2
100	0.4141	-233.65	1517.1	418.82	-190.13	1533.8	70.538	-231.77	1810.8	247.43	-172.65	1469.2	246.76	-250.52	1092.4	91.032	-246.15	1126.3	416.3	-189.04	1014.1	120.61	-167.05	1037.9	393.08	-279.49	927.52	72.927	-231.66	966.34	457.36	-367.23	1080.2	210.49	-361.67	1091.6	301.49	-378.06	1053.8	259.08	-292	526.25	133.7	-323.96	530.58	266.74	-96.757	569.42	409.32	-96.561	579.3	278.09	-432.19	130.4	157.68	-431.55	130.34	228.23	-109.15	139.28	396.42	-90.075	160.8	308.65	-298.35	759.02	103.91	-234.1	754.17	118.03	-235.96	681.34	134	-300.79	685.42	119.15	-198.52	746.25	429.34	-136.64	775.51	437.85	-109.64	706.38	427.6	-169.77	677.4	417.08	-330.89	448.93	136.56	-286.75	447.83	163.14	-313.25	394.83	168.46	-370.83	400.35	158.12	-158.33	405.96	406.85	-91.264	409.37	418.96	-91.669	333.84	411.36	-159.97	332.79	396.41	-530.13	78.346	163.45	-532.82	106.79	196.07	-528.05	76.578	230.15	-161.58	58.005	362.86	-165.23	84.941	328.58	-141.93	62.73	299.03	-323.15	53.724	242.16	-356.78	39.651	136.43	-263.45	50.985	208.51	54.05	110.51	337.74	9.628	88.719	435.94	94.779	123.85	395.95
101	0.41828	-227.51	1516.4	418.71	-184.04	1533.2	70.505	-225.77	1810.2	247.6	-166.71	1468.5	246.53	-245.35	1091.7	91.17	-239.48	1125.7	416.35	-183.86	1013.3	120.5	-160.39	1037.3	392.84	-274.87	926.97	73.214	-224.93	965.76	457.44	-361.67	1079.7	211.18	-355.41	1091.1	302.12	-372.07	1053.3	259.8	-289.57	525.92	134.11	-321.46	530.29	267.2	-91.489	568.45	409.17	-92.465	577.95	277.81	-431.71	130.75	157.82	-431.05	130.63	228.39	-91.35	137.55	395.72	-73.28	159.85	307.95	-294.46	758.76	104.33	-230.29	753.48	118.23	-232.56	680.68	134.28	-297.4	685.15	119.57	-192.99	745.55	429.44	-130.86	774.51	437.61	-104.31	705.28	427.3	-164.62	676.57	417.07	-328.85	448.79	136.94	-284.72	447.45	163.5	-311.48	394.57	168.8	-369.03	400.38	158.48	-148.61	402.98	406.91	-81.596	408.36	418.67	-79.765	332.86	410.96	-148.1	329.78	396.28	-530.05	79.138	163.54	-532.34	107.51	196.3	-527.79	77.222	230.25	-141.28	54.663	362.13	-146.02	81.518	327.89	-122.08	60.136	298.28	-323.08	53.694	242.19	-356.72	39.687	136.43	-263.34	50.866	208.53	72.459	114.1	336.51	29.102	90.814	434.81	112.98	128.66	394.6
102	0.42246	-221.36	1515.7	418.61	-177.95	1532.4	70.483	-219.77	1809.4	247.76	-160.76	1467.7	246.31	-240.16	1090.9	91.336	-232.74	1125.1	416.41	-178.67	1012.5	120.38	-153.69	1036.7	392.58	-270.24	926.38	73.5	-218.15	965.07	457.52	-356.06	1079.2	211.88	-349.13	1090.6	302.78	-366.04	1052.7	260.55	-287.13	525.55	134.5	-318.95	529.97	267.63	-86.279	567.38	409.06	-88.491	576.47	277.56	-431.23	131.08	157.96	-430.55	130.91	228.54	-73.758	136.04	394.97	-56.724	159.13	307.22	-290.54	758.49	104.74	-226.47	752.76	118.39	-229.14	679.99	134.52	-293.99	684.86	119.97	-187.49	744.75	429.56	-125.13	773.39	437.42	-99.038	704.06	427.04	-159.53	675.63	417.09	-326.82	448.62	137.3	-282.68	447.04	163.84	-309.71	394.28	169.12	-367.22	400.39	158.83	-138.93	400.04	407.01	-72.023	407.37	418.4	-67.994	331.95	410.58	-136.32	326.86	396.16	-529.99	79.92	163.61	-531.86	108.22	196.53	-527.53	77.853	230.35	-121.22	51.649	361.31	-127.05	78.421	327.15	-102.51	57.903	297.44	-323.03	53.664	242.2	-356.66	39.717	136.43	-263.24	50.753	208.54	90.472	117.87	335.19	48.238	93.058	433.58	130.79	133.56	393.14
103	0.42665	-215.19	1514.8	418.54	-171.86	1531.6	70.471	-213.76	1808.7	247.93	-154.81	1466.8	246.1	-234.94	1090.1	91.531	-225.95	1124.4	416.48	-173.46	1011.6	120.25	-146.96	1036	392.31	-265.6	925.75	73.786	-211.32	964.29	457.59	-350.4	1078.6	212.61	-342.84	1089.9	303.46	-359.99	1052	261.31	-284.67	525.17	134.85	-316.43	529.63	268.03	-81.105	566.22	409	-84.611	574.86	277.34	-430.76	131.41	158.09	-430.06	131.18	228.69	-56.417	134.74	394.17	-40.439	158.62	306.45	-286.62	758.19	105.16	-222.64	752	118.53	-225.71	679.26	134.74	-290.57	684.53	120.35	-182.01	743.83	429.72	-119.43	772.15	437.27	-93.807	702.72	426.84	-154.49	674.59	417.14	-324.77	448.43	137.63	-280.65	446.6	164.14	-307.94	393.97	169.41	-365.4	400.39	159.15	-129.32	397.16	407.14	-62.551	406.39	418.15	-56.37	331.11	410.19	-124.64	324.06	396.06	-529.92	80.692	163.69	-531.35	108.92	196.76	-527.27	78.473	230.44	-101.44	48.957	360.41	-108.35	75.646	326.35	-83.251	56.021	296.52	-322.98	53.633	242.21	-356.61	39.74	136.43	-263.15	50.645	208.56	108.06	121.78	333.77	66.996	95.426	432.26	148.17	138.53	391.6
104	0.43083	-209.02	1513.9	418.48	-165.77	1530.7	70.474	-207.74	1807.8	248.1	-148.86	1465.9	245.91	-229.7	1089.2	91.752	-219.1	1123.6	416.55	-168.23	1010.7	120.09	-140.18	1035.1	392.02	-260.94	925.09	74.071	-204.42	963.41	457.65	-344.7	1077.9	213.35	-336.53	1089.2	304.16	-353.9	1051.3	262.09	-282.19	524.75	135.17	-313.9	529.28	268.39	-75.946	564.99	408.98	-80.799	573.15	277.15	-430.29	131.72	158.22	-429.57	131.44	228.82	-39.368	133.63	393.31	-24.459	158.3	305.65	-282.67	757.87	105.57	-218.81	751.21	118.64	-222.28	678.5	134.92	-287.14	684.19	120.71	-176.54	742.82	429.91	-113.75	770.81	437.17	-88.598	701.27	426.68	-149.47	673.45	417.21	-322.72	448.21	137.93	-278.61	446.14	164.42	-306.16	393.64	169.68	-363.59	400.35	159.44	-119.77	394.35	407.29	-53.184	405.42	417.92	-44.909	330.33	409.82	-113.09	321.37	395.95	-529.86	81.451	163.75	-530.84	109.61	196.99	-527.01	79.083	230.52	-82.007	46.578	359.42	-89.978	73.184	325.49	-64.366	54.474	295.5	-322.94	53.603	242.21	-356.57	39.757	136.43	-263.07	50.543	208.57	125.19	125.81	332.28	85.337	97.889	430.86	165.09	143.5	390
105	0.43501	-202.83	1513	418.44	-159.69	1529.8	70.492	-201.72	1806.9	248.26	-142.9	1464.9	245.73	-224.43	1088.2	91.997	-212.18	1122.7	416.63	-162.97	1009.7	119.92	-133.38	1034.2	391.71	-256.28	924.39	74.354	-197.47	962.44	457.7	-338.95	1077.2	214.11	-330.22	1088.3	304.89	-347.78	1050.4	262.88	-279.7	524.31	135.46	-311.38	528.9	268.73	-70.777	563.69	409	-77.025	571.34	276.98	-429.82	132.01	158.33	-429.08	131.69	228.95	-22.654	132.72	392.4	-8.8179	158.17	304.83	-278.72	757.53	105.98	-214.97	750.39	118.72	-218.84	677.71	135.07	-283.7	683.81	121.05	-171.06	741.73	430.13	-108.08	769.38	437.11	-83.391	699.74	426.56	-144.45	672.23	417.32	-320.66	447.96	138.21	-276.56	445.65	164.68	-304.37	393.29	169.93	-361.76	400.3	159.71	-110.29	391.62	407.45	-43.929	404.47	417.71	-33.627	329.61	409.44	-101.68	318.8	395.84	-529.77	82.196	163.81	-530.3	110.29	197.21	-526.75	79.684	230.6	-62.973	44.499	358.35	-71.983	71.024	324.58	-45.903	53.241	294.41	-322.91	53.572	242.21	-356.52	39.768	136.42	-262.99	50.446	208.58	141.83	129.9	330.72	103.22	100.42	429.38	181.54	148.46	388.33
